<svg data-name="Ebene 1" xmlns="http://www.w3.org/2000/svg" viewBox="0 0 500 500"><path fill="#fff" d="M440.72 23.78c-.87-.05-1.77-.05-2.64-.05-63.45 0-116.47 44.81-129.12 104.51-14.11-7.59-36.46-12.89-58.81-12.89-33.3 0-61.65 9.9-85.05 29.7-23.4 19.8-35.1 47.7-35.1 83.7s10.87 61.43 32.62 81.68 50.93 30.37 87.53 30.37 54 12.75 54 38.25c0 13.2-5.33 23.32-15.98 30.37S264.55 420 249.25 420c-35.1 0-53.7-15-55.8-45h-60.3c-.6 32.4 9.08 57.52 29.02 75.37 19.95 17.85 48.98 26.78 87.08 26.78 33 0 61.35-8.55 85.05-25.65 23.7-17.1 35.55-41.25 35.55-72.45 0-33-16.5-56.85-49.5-71.55 30.9-15.9 46.8-41.85 47.7-77.85.9-23.1-10.41-52.4-18.68-63.65-3.21-4.36-6.42-8.98-10.46-13.74 58.32-13.66 101.79-66 101.81-128.48zM289.75 267.9c-10.8 9.3-24 13.95-39.6 13.95-16.5 0-30.23-4.87-41.18-14.62s-16.42-22.58-16.42-38.48c0-17.4 5.32-31.05 15.97-40.95 10.65-9.9 24.53-14.85 41.63-14.85 15.9 0 29.18 5.4 39.82 16.2 10.65 10.8 15.98 24 15.98 39.6 0 16.8-5.4 29.85-16.2 39.15z" stroke-width="0"/></svg>